<svg width="328" height="192" viewBox="0 0 328 192" fill="none" xmlns="http://www.w3.org/2000/svg">
<g clip-path="url(#clip0_1_462)">
<rect width="328" height="192" rx="15" fill="white"/>
<rect width="328" height="192" rx="15" fill="url(#paint0_linear_1_462)"/>
<path d="M66.5 43.5C38.5 37.5 10.5 54 0 63V0H148C132.5 17 94.5 49.5 66.5 43.5Z" fill="url(#paint1_linear_1_462)"/>
<path d="M110 101.87C43.6 94.2704 -0.5 116.037 -9.5 127.87L-19 165.37C3 144.315 57.8 112.238 63 152.37C69.5 202.535 145.5 182.87 149.5 165.37C153.5 147.87 242.5 185.37 228.5 127.87C214.5 70.3704 338 125.37 338 119.37V71.3704C328.167 54.3704 291.8 23.1704 225 34.3704C141.5 48.3704 193 111.37 110 101.87Z" fill="url(#paint2_linear_1_462)"/>
</g>
<defs>
<linearGradient id="paint0_linear_1_462" x1="164" y1="0" x2="164" y2="192" gradientUnits="userSpaceOnUse">
<stop stop-color="#9EC7CB"/>
<stop offset="1" stop-color="#FFC16E"/>
</linearGradient>
<linearGradient id="paint1_linear_1_462" x1="74" y1="0" x2="34" y2="63" gradientUnits="userSpaceOnUse">
<stop stop-color="#FFC16E" stop-opacity="0.4"/>
<stop offset="1" stop-color="#9EC7CB"/>
</linearGradient>
<linearGradient id="paint2_linear_1_462" x1="268" y1="57.3704" x2="-8.50001" y2="149" gradientUnits="userSpaceOnUse">
<stop stop-color="#9EC7CB" stop-opacity="0.7"/>
<stop offset="0.9999" stop-color="#FFC16E" stop-opacity="0.5"/>
<stop offset="1" stop-color="#F2C335" stop-opacity="0.7"/>
</linearGradient>
<clipPath id="clip0_1_462">
<rect width="328" height="192" rx="15" fill="white"/>
</clipPath>
</defs>
</svg>
